<?xml version="1.0" encoding="UTF-8" standalone="no"?>
<svg
   xmlns:dc="http://purl.org/dc/elements/1.1/"
   xmlns:cc="http://creativecommons.org/ns#"
   xmlns:rdf="http://www.w3.org/1999/02/22-rdf-syntax-ns#"
   xmlns:svg="http://www.w3.org/2000/svg"
   xmlns="http://www.w3.org/2000/svg"
   xmlns:sodipodi="http://sodipodi.sourceforge.net/DTD/sodipodi-0.dtd"
   xmlns:inkscape="http://www.inkscape.org/namespaces/inkscape"
   width="744.094488189"
   height="1052.36220472"
   id="svg2"
   version="1.1"
   inkscape:version="0.91 r"
   sodipodi:docname="shrew-bottom.svg">
  <metadata
     id="metadata180">
    <rdf:RDF>
      <cc:Work
         rdf:about="">
        <dc:format>image/svg+xml</dc:format>
        <dc:type
           rdf:resource="http://purl.org/dc/dcmitype/StillImage" />
        <dc:title></dc:title>
      </cc:Work>
    </rdf:RDF>
  </metadata>
  <sodipodi:namedview
     pagecolor="#ffffff"
     bordercolor="#666666"
     borderopacity="1"
     objecttolerance="10"
     gridtolerance="10"
     guidetolerance="10"
     inkscape:pageopacity="0"
     inkscape:pageshadow="2"
     inkscape:window-width="1366"
     inkscape:window-height="715"
     id="namedview178"
     showgrid="false"
     inkscape:zoom="0.63429569"
     inkscape:cx="-88.305878"
     inkscape:cy="703.20194"
     inkscape:window-x="0"
     inkscape:window-y="0"
     inkscape:window-maximized="1"
     inkscape:current-layer="g176" />
  <desc
     id="desc4">/tmp/tmpIiDIAA/shrew-bottom.dxf - scale = 1.000000, origin = (0.000000, 0.000000), auto = False</desc>
  <defs
     id="defs6">
    <marker
       id="DistanceX"
       orient="auto"
       refX="0.0"
       refY="0.0"
       style="overflow:visible">
      <path
         d="M 3,-3 L -3,3 M 0,-5 L  0,5"
         style="stroke:#000000; stroke-width:0.5"
         id="path9" />
    </marker>
    <pattern
       height="8"
       id="Hatch"
       patternUnits="userSpaceOnUse"
       width="8"
       x="0"
       y="0">
      <path
         d="M8 4 l-4,4"
         linecap="square"
         stroke="#000000"
         stroke-width="0.25"
         id="path12" />
      <path
         d="M6 2 l-4,4"
         linecap="square"
         stroke="#000000"
         stroke-width="0.25"
         id="path14" />
      <path
         d="M4 0 l-4,4"
         linecap="square"
         stroke="#000000"
         stroke-width="0.25"
         id="path16" />
    </pattern>
    <symbol
       id="*Model_Space" />
    <symbol
       id="*Paper_Space" />
  </defs>
  <g
     inkscape:groupmode="layer"
     inkscape:label="0"
     id="g20">
    <path
       d="M 26.787396,226.13278 127.60509,51.51141"
       style="fill:none;stroke:#000000"
       id="path22"
       inkscape:connector-curvature="0" />
    <path
       d="m 390.61237,507.05337 -201.6354,0"
       style="fill:none;stroke:#000000"
       id="path24"
       inkscape:connector-curvature="0" />
    <path
       d="M 127.60509,471.6203 26.787396,296.99893"
       style="fill:none;stroke:#000000"
       id="path26"
       inkscape:connector-curvature="0" />
    <path
       d="M 552.80194,296.99893 451.98425,471.6203"
       style="fill:none;stroke:#000000"
       id="path28"
       inkscape:connector-curvature="0" />
    <path
       d="m 188.97697,16.078339 201.6354,0"
       style="fill:none;stroke:#000000"
       id="path30"
       inkscape:connector-curvature="0" />
    <path
       d="M 451.98425,51.51141 552.80194,226.13278"
       style="fill:none;stroke:#000000"
       id="path32"
       inkscape:connector-curvature="0" />
    <path
       d="M 188.97697,16.078339 A 70.866142,70.866142 0 0 0 127.60509,51.51141"
       style="fill:none;stroke:#000000"
       id="path34"
       inkscape:connector-curvature="0" />
    <path
       d="M 451.98425,51.51141 A 70.866142,70.866142 0 0 0 390.61237,16.078339"
       style="fill:none;stroke:#000000"
       id="path36"
       inkscape:connector-curvature="0" />
    <path
       d="m 552.80194,296.99893 a 70.866142,70.866142 0 0 0 0,-70.86615"
       style="fill:none;stroke:#000000"
       id="path38"
       inkscape:connector-curvature="0" />
    <path
       d="M 390.61237,507.05337 A 70.866142,70.866142 0 0 0 451.98425,471.6203"
       style="fill:none;stroke:#000000"
       id="path40"
       inkscape:connector-curvature="0" />
    <path
       d="m 127.60509,471.6203 a 70.866142,70.866142 0 0 0 61.37188,35.43307"
       style="fill:none;stroke:#000000"
       id="path42"
       inkscape:connector-curvature="0" />
    <path
       d="m 26.787396,226.13278 a 70.866142,70.866142 0 0 0 0,70.86615"
       style="fill:none;stroke:#000000"
       id="path44"
       inkscape:connector-curvature="0" />
  </g>
  <g
     inkscape:groupmode="layer"
     inkscape:label="DEFAULT_1"
     id="g46" />
  <g
     inkscape:groupmode="layer"
     inkscape:label="DEFAULT_2"
     id="g48" />
  <g
     inkscape:groupmode="layer"
     inkscape:label="DEFAULT_3"
     id="g50" />
  <g
     inkscape:groupmode="layer"
     inkscape:label="01___PRT_ALL_DTM_PLN"
     id="g52" />
  <g
     inkscape:groupmode="layer"
     inkscape:label="01___PRT_DEF_DTM_PLN"
     id="g54" />
  <g
     inkscape:groupmode="layer"
     inkscape:label="02___PRT_ALL_AXES"
     id="g56">
    <path
       d="M 44.594411,205.92005 55.224332,187.50849"
       style="fill:none;stroke:#000000"
       id="path58"
       inkscape:connector-curvature="0" />
    <path
       d="M 108.37394,95.450668 119.00386,77.039104"
       style="fill:none;stroke:#000000"
       id="path60"
       inkscape:connector-curvature="0" />
    <path
       d="M 128.20964,82.354065 117.57972,100.76563"
       style="fill:none;stroke:#000000"
       id="path62"
       inkscape:connector-curvature="0" />
    <path
       d="M 64.430114,192.82345 53.800193,211.23501"
       style="fill:none;stroke:#000000"
       id="path64"
       inkscape:connector-curvature="0" />
    <path
       d="m 364.20412,501.73841 -21.25984,0"
       style="fill:none;stroke:#000000"
       id="path66"
       inkscape:connector-curvature="0" />
    <path
       d="m 236.64506,501.73841 -21.25984,0"
       style="fill:none;stroke:#000000"
       id="path68"
       inkscape:connector-curvature="0" />
    <path
       d="m 215.38522,491.10849 21.25984,0"
       style="fill:none;stroke:#000000"
       id="path70"
       inkscape:connector-curvature="0" />
    <path
       d="m 342.94428,491.10849 21.25984,0"
       style="fill:none;stroke:#000000"
       id="path72"
       inkscape:connector-curvature="0" />
    <path
       d="M 119.00386,446.09261 108.37394,427.68104"
       style="fill:none;stroke:#000000"
       id="path74"
       inkscape:connector-curvature="0" />
    <path
       d="M 55.224332,335.62322 44.594411,317.21166"
       style="fill:none;stroke:#000000"
       id="path76"
       inkscape:connector-curvature="0" />
    <path
       d="m 53.800193,311.8967 10.629921,18.41156"
       style="fill:none;stroke:#000000"
       id="path78"
       inkscape:connector-curvature="0" />
    <path
       d="m 117.57972,422.36608 10.62992,18.41157"
       style="fill:none;stroke:#000000"
       id="path80"
       inkscape:connector-curvature="0" />
    <path
       d="m 215.38522,501.73841 0,-10.62992"
       style="fill:none;stroke:#000000"
       id="path82"
       inkscape:connector-curvature="0" />
    <path
       d="m 215.38522,32.023221 0,-10.629921"
       style="fill:none;stroke:#000000"
       id="path84"
       inkscape:connector-curvature="0" />
    <path
       d="m 44.594411,317.21166 9.205782,-5.31496"
       style="fill:none;stroke:#000000"
       id="path86"
       inkscape:connector-curvature="0" />
    <path
       d="m 451.3797,82.354065 9.20578,-5.314961"
       style="fill:none;stroke:#000000"
       id="path88"
       inkscape:connector-curvature="0" />
    <path
       d="m 460.58548,446.09261 -9.20578,-5.31496"
       style="fill:none;stroke:#000000"
       id="path90"
       inkscape:connector-curvature="0" />
    <path
       d="m 53.800193,211.23501 -9.205782,-5.31496"
       style="fill:none;stroke:#000000"
       id="path92"
       inkscape:connector-curvature="0" />
    <path
       d="m 236.64506,21.3933 0,10.629921"
       style="fill:none;stroke:#000000"
       id="path94"
       inkscape:connector-curvature="0" />
    <path
       d="m 236.64506,491.10849 0,10.62992"
       style="fill:none;stroke:#000000"
       id="path96"
       inkscape:connector-curvature="0" />
    <path
       d="m 471.2154,95.450668 -9.20578,5.314962"
       style="fill:none;stroke:#000000"
       id="path98"
       inkscape:connector-curvature="0" />
    <path
       d="m 64.430114,330.30826 -9.205782,5.31496"
       style="fill:none;stroke:#000000"
       id="path100"
       inkscape:connector-curvature="0" />
    <path
       d="m 55.224332,187.50849 9.205782,5.31496"
       style="fill:none;stroke:#000000"
       id="path102"
       inkscape:connector-curvature="0" />
    <path
       d="m 462.00962,422.36608 9.20578,5.31496"
       style="fill:none;stroke:#000000"
       id="path104"
       inkscape:connector-curvature="0" />
    <path
       d="m 342.94428,501.73841 0,-10.62992"
       style="fill:none;stroke:#000000"
       id="path106"
       inkscape:connector-curvature="0" />
    <path
       d="m 342.94428,32.023221 0,-10.629921"
       style="fill:none;stroke:#000000"
       id="path108"
       inkscape:connector-curvature="0" />
    <path
       d="m 364.20412,21.3933 0,10.629921"
       style="fill:none;stroke:#000000"
       id="path110"
       inkscape:connector-curvature="0" />
    <path
       d="m 364.20412,491.10849 0,10.62992"
       style="fill:none;stroke:#000000"
       id="path112"
       inkscape:connector-curvature="0" />
    <path
       d="m 108.37394,427.68104 9.20578,-5.31496"
       style="fill:none;stroke:#000000"
       id="path114"
       inkscape:connector-curvature="0" />
    <path
       d="m 515.15923,192.82345 9.20578,-5.31496"
       style="fill:none;stroke:#000000"
       id="path116"
       inkscape:connector-curvature="0" />
    <path
       d="m 534.99493,205.92005 -9.20578,5.31496"
       style="fill:none;stroke:#000000"
       id="path118"
       inkscape:connector-curvature="0" />
    <path
       d="m 128.20964,440.77765 -9.20578,5.31496"
       style="fill:none;stroke:#000000"
       id="path120"
       inkscape:connector-curvature="0" />
    <path
       d="m 524.36501,335.62322 -9.20578,-5.31496"
       style="fill:none;stroke:#000000"
       id="path122"
       inkscape:connector-curvature="0" />
    <path
       d="m 117.57972,100.76563 -9.20578,-5.314962"
       style="fill:none;stroke:#000000"
       id="path124"
       inkscape:connector-curvature="0" />
    <path
       d="m 119.00386,77.039104 9.20578,5.314961"
       style="fill:none;stroke:#000000"
       id="path126"
       inkscape:connector-curvature="0" />
    <path
       d="m 525.78915,311.8967 9.20578,5.31496"
       style="fill:none;stroke:#000000"
       id="path128"
       inkscape:connector-curvature="0" />
    <path
       d="m 451.3797,440.77765 10.62992,-18.41157"
       style="fill:none;stroke:#000000"
       id="path130"
       inkscape:connector-curvature="0" />
    <path
       d="M 515.15923,330.30826 525.78915,311.8967"
       style="fill:none;stroke:#000000"
       id="path132"
       inkscape:connector-curvature="0" />
    <path
       d="m 534.99493,317.21166 -10.62992,18.41156"
       style="fill:none;stroke:#000000"
       id="path134"
       inkscape:connector-curvature="0" />
    <path
       d="m 471.2154,427.68104 -10.62992,18.41157"
       style="fill:none;stroke:#000000"
       id="path136"
       inkscape:connector-curvature="0" />
    <path
       d="m 364.20412,32.023221 -21.25984,0"
       style="fill:none;stroke:#000000"
       id="path138"
       inkscape:connector-curvature="0" />
    <path
       d="m 236.64506,32.023221 -21.25984,0"
       style="fill:none;stroke:#000000"
       id="path140"
       inkscape:connector-curvature="0" />
    <path
       d="m 215.38522,21.3933 21.25984,0"
       style="fill:none;stroke:#000000"
       id="path142"
       inkscape:connector-curvature="0" />
    <path
       d="m 342.94428,21.3933 21.25984,0"
       style="fill:none;stroke:#000000"
       id="path144"
       inkscape:connector-curvature="0" />
    <path
       d="M 525.78915,211.23501 515.15923,192.82345"
       style="fill:none;stroke:#000000"
       id="path146"
       inkscape:connector-curvature="0" />
    <path
       d="M 462.00962,100.76563 451.3797,82.354065"
       style="fill:none;stroke:#000000"
       id="path148"
       inkscape:connector-curvature="0" />
    <path
       d="M 460.58548,77.039104 471.2154,95.450668"
       style="fill:none;stroke:#000000"
       id="path150"
       inkscape:connector-curvature="0" />
    <path
       d="m 524.36501,187.50849 10.62992,18.41156"
       style="fill:none;stroke:#000000"
       id="path152"
       inkscape:connector-curvature="0" />
    <path
       d="m 91.716987,144.13706 a 5.314961,5.314961 0 1 0 -10.629921,0 5.314961,5.314961 0 1 0 10.629921,0 z"
       style="fill:none;stroke:#000000"
       id="path154"
       inkscape:connector-curvature="0" />
    <path
       d="m 91.716987,378.99465 a 5.314961,5.314961 0 1 0 -10.629921,0 5.314961,5.314961 0 1 0 10.629921,0 z"
       style="fill:none;stroke:#000000"
       id="path156"
       inkscape:connector-curvature="0" />
    <path
       d="m 498.50227,378.99465 a 5.314961,5.314961 0 1 0 -10.62992,0 5.314961,5.314961 0 1 0 10.62992,0 z"
       style="fill:none;stroke:#000000"
       id="path158"
       inkscape:connector-curvature="0" />
    <path
       d="m 498.50227,144.13706 a 5.314961,5.314961 0 1 0 -10.62992,0 5.314961,5.314961 0 1 0 10.62992,0 z"
       style="fill:none;stroke:#000000"
       id="path160"
       inkscape:connector-curvature="0" />
    <path
       d="m 295.10963,26.70826 a 5.314961,5.314961 0 1 0 -10.62992,0 5.314961,5.314961 0 1 0 10.62992,0 z"
       style="fill:none;stroke:#000000"
       id="path162"
       inkscape:connector-curvature="0" />
    <path
       d="m 295.10963,496.42345 a 5.314961,5.314961 0 1 0 -10.62992,0 5.314961,5.314961 0 1 0 10.62992,0 z"
       style="fill:none;stroke:#000000"
       id="path164"
       inkscape:connector-curvature="0" />
  </g>
  <g
     inkscape:groupmode="layer"
     inkscape:label="03___PRT_ALL_CURVES"
     id="g166" />
  <g
     inkscape:groupmode="layer"
     inkscape:label="04___PRT_ALL_DTM_PNT"
     id="g168" />
  <g
     inkscape:groupmode="layer"
     inkscape:label="05___PRT_ALL_DTM_CSYS"
     id="g170" />
  <g
     inkscape:groupmode="layer"
     inkscape:label="05___PRT_DEF_DTM_CSYS"
     id="g172" />
  <g
     inkscape:groupmode="layer"
     inkscape:label="06___PRT_ALL_SURFS"
     id="g174" />
  <g
     inkscape:groupmode="layer"
     inkscape:label="3_ALL_SYMBOLS"
     id="g176" />
</svg>