<?xml version="1.0" encoding="UTF-8" standalone="no"?>
<svg
   xmlns:dc="http://purl.org/dc/elements/1.1/"
   xmlns:cc="http://creativecommons.org/ns#"
   xmlns:rdf="http://www.w3.org/1999/02/22-rdf-syntax-ns#"
   xmlns:svg="http://www.w3.org/2000/svg"
   xmlns="http://www.w3.org/2000/svg"
   xmlns:sodipodi="http://sodipodi.sourceforge.net/DTD/sodipodi-0.dtd"
   xmlns:inkscape="http://www.inkscape.org/namespaces/inkscape"
   width="744.094488189"
   height="1052.36220472"
   id="svg2"
   version="1.1"
   inkscape:version="0.91 r"
   sodipodi:docname="shrew-top.svg">
  <metadata
     id="metadata216">
    <rdf:RDF>
      <cc:Work
         rdf:about="">
        <dc:format>image/svg+xml</dc:format>
        <dc:type
           rdf:resource="http://purl.org/dc/dcmitype/StillImage" />
        <dc:title></dc:title>
      </cc:Work>
    </rdf:RDF>
  </metadata>
  <sodipodi:namedview
     pagecolor="#ffffff"
     bordercolor="#666666"
     borderopacity="1"
     objecttolerance="10"
     gridtolerance="10"
     guidetolerance="10"
     inkscape:pageopacity="0"
     inkscape:pageshadow="2"
     inkscape:window-width="1366"
     inkscape:window-height="715"
     id="namedview214"
     showgrid="false"
     inkscape:zoom="0.44851479"
     inkscape:cx="358.66976"
     inkscape:cy="704.54756"
     inkscape:window-x="0"
     inkscape:window-y="0"
     inkscape:window-maximized="1"
     inkscape:current-layer="g212" />
  <desc
     id="desc4">/tmp/tmpzjR3Co/shrew-top.dxf - scale = 1.000000, origin = (0.000000, 0.000000), auto = False</desc>
  <defs
     id="defs6">
    <marker
       id="DistanceX"
       orient="auto"
       refX="0.0"
       refY="0.0"
       style="overflow:visible">
      <path
         d="M 3,-3 L -3,3 M 0,-5 L  0,5"
         style="stroke:#000000; stroke-width:0.5"
         id="path9" />
    </marker>
    <pattern
       height="8"
       id="Hatch"
       patternUnits="userSpaceOnUse"
       width="8"
       x="0"
       y="0">
      <path
         d="M8 4 l-4,4"
         linecap="square"
         stroke="#000000"
         stroke-width="0.25"
         id="path12" />
      <path
         d="M6 2 l-4,4"
         linecap="square"
         stroke="#000000"
         stroke-width="0.25"
         id="path14" />
      <path
         d="M4 0 l-4,4"
         linecap="square"
         stroke="#000000"
         stroke-width="0.25"
         id="path16" />
    </pattern>
    <symbol
       id="*MODEL_SPACE" />
    <symbol
       id="*PAPER_SPACE" />
  </defs>
  <g
     inkscape:groupmode="layer"
     inkscape:label="0"
     id="g20">
    <path
       d="M 81.488855,234.11594 182.30655,59.494565"
       style="fill:none;stroke:#000000"
       id="path22"
       inkscape:connector-curvature="0" />
    <path
       d="m 445.31383,515.03653 -201.6354,0"
       style="fill:none;stroke:#000000"
       id="path24"
       inkscape:connector-curvature="0" />
    <path
       d="M 182.30655,479.60346 81.488855,304.98208"
       style="fill:none;stroke:#000000"
       id="path26"
       inkscape:connector-curvature="0" />
    <path
       d="m 371.07093,443.17106 -53.1496,0"
       style="fill:none;stroke:#000000"
       id="path28"
       inkscape:connector-curvature="0" />
    <path
       d="m 317.92133,393.56476 53.1496,0"
       style="fill:none;stroke:#000000"
       id="path30"
       inkscape:connector-curvature="0" />
    <path
       d="m 317.92133,443.17106 0,-49.6063"
       style="fill:none;stroke:#000000"
       id="path32"
       inkscape:connector-curvature="0" />
    <path
       d="m 371.07093,393.56476 0,49.6063"
       style="fill:none;stroke:#000000"
       id="path34"
       inkscape:connector-curvature="0" />
    <path
       d="M 607.5034,304.98208 506.68571,479.60346"
       style="fill:none;stroke:#000000"
       id="path36"
       inkscape:connector-curvature="0" />
    <path
       d="m 243.67843,24.061494 201.6354,0"
       style="fill:none;stroke:#000000"
       id="path38"
       inkscape:connector-curvature="0" />
    <path
       d="M 506.68571,59.494565 607.5034,234.11594"
       style="fill:none;stroke:#000000"
       id="path40"
       inkscape:connector-curvature="0" />
    <path
       d="m 182.30655,479.60346 a 70.866142,70.866142 0 0 0 61.37188,35.43307"
       style="fill:none;stroke:#000000"
       id="path42"
       inkscape:connector-curvature="0" />
    <path
       d="m 81.488855,234.11594 a 70.866142,70.866142 0 0 0 0,70.86614"
       style="fill:none;stroke:#000000"
       id="path44"
       inkscape:connector-curvature="0" />
    <path
       d="M 243.67843,24.061494 A 70.866142,70.866142 0 0 0 182.30655,59.494565"
       style="fill:none;stroke:#000000"
       id="path46"
       inkscape:connector-curvature="0" />
    <path
       d="m 445.31383,515.03653 a 70.866142,70.866142 0 0 0 61.37188,-35.43307"
       style="fill:none;stroke:#000000"
       id="path48"
       inkscape:connector-curvature="0" />
    <path
       d="M 506.68571,59.494565 A 70.866142,70.866142 0 0 0 445.31383,24.061494"
       style="fill:none;stroke:#000000"
       id="path50"
       inkscape:connector-curvature="0" />
    <path
       d="m 607.5034,304.98208 a 70.866142,70.866142 0 0 0 0,-70.86614"
       style="fill:none;stroke:#000000"
       id="path52"
       inkscape:connector-curvature="0" />
  </g>
  <g
     inkscape:groupmode="layer"
     inkscape:label="DEFAULT_1"
     id="g54" />
  <g
     inkscape:groupmode="layer"
     inkscape:label="DEFAULT_2"
     id="g56" />
  <g
     inkscape:groupmode="layer"
     inkscape:label="DEFAULT_3"
     id="g58" />
  <g
     inkscape:groupmode="layer"
     inkscape:label="01___PRT_ALL_DTM_PLN"
     id="g60" />
  <g
     inkscape:groupmode="layer"
     inkscape:label="01___PRT_DEF_DTM_PLN"
     id="g62" />
  <g
     inkscape:groupmode="layer"
     inkscape:label="02___PRT_ALL_AXES"
     id="g64">
    <path
       d="m 99.29587,213.90321 10.62992,-18.41157"
       style="fill:none;stroke:#000000"
       id="path66"
       inkscape:connector-curvature="0" />
    <path
       d="M 163.0754,103.43382 173.70532,85.02226"
       style="fill:none;stroke:#000000"
       id="path68"
       inkscape:connector-curvature="0" />
    <path
       d="m 182.9111,90.33722 -10.62992,18.41156"
       style="fill:none;stroke:#000000"
       id="path70"
       inkscape:connector-curvature="0" />
    <path
       d="m 119.13157,200.8066 -10.62992,18.41157"
       style="fill:none;stroke:#000000"
       id="path72"
       inkscape:connector-curvature="0" />
    <path
       d="m 418.90558,509.72157 -21.25984,0"
       style="fill:none;stroke:#000000"
       id="path74"
       inkscape:connector-curvature="0" />
    <path
       d="m 291.34652,509.72157 -21.25984,0"
       style="fill:none;stroke:#000000"
       id="path76"
       inkscape:connector-curvature="0" />
    <path
       d="m 270.08668,499.09165 21.25984,0"
       style="fill:none;stroke:#000000"
       id="path78"
       inkscape:connector-curvature="0" />
    <path
       d="m 397.64574,499.09165 21.25984,0"
       style="fill:none;stroke:#000000"
       id="path80"
       inkscape:connector-curvature="0" />
    <path
       d="M 173.70532,454.07576 163.0754,435.6642"
       style="fill:none;stroke:#000000"
       id="path82"
       inkscape:connector-curvature="0" />
    <path
       d="M 109.92579,343.60638 99.29587,325.19482"
       style="fill:none;stroke:#000000"
       id="path84"
       inkscape:connector-curvature="0" />
    <path
       d="m 108.50165,319.87986 10.62992,18.41156"
       style="fill:none;stroke:#000000"
       id="path86"
       inkscape:connector-curvature="0" />
    <path
       d="M 172.28118,430.34924 182.9111,448.7608"
       style="fill:none;stroke:#000000"
       id="path88"
       inkscape:connector-curvature="0" />
    <path
       d="m 270.08668,509.72157 0,-10.62992"
       style="fill:none;stroke:#000000"
       id="path90"
       inkscape:connector-curvature="0" />
    <path
       d="m 270.08668,40.006376 0,-10.629921"
       style="fill:none;stroke:#000000"
       id="path92"
       inkscape:connector-curvature="0" />
    <path
       d="m 99.29587,325.19482 9.20578,-5.31496"
       style="fill:none;stroke:#000000"
       id="path94"
       inkscape:connector-curvature="0" />
    <path
       d="m 506.08116,90.33722 9.20578,-5.31496"
       style="fill:none;stroke:#000000"
       id="path96"
       inkscape:connector-curvature="0" />
    <path
       d="m 515.28694,454.07576 -9.20578,-5.31496"
       style="fill:none;stroke:#000000"
       id="path98"
       inkscape:connector-curvature="0" />
    <path
       d="m 108.50165,219.21817 -9.20578,-5.31496"
       style="fill:none;stroke:#000000"
       id="path100"
       inkscape:connector-curvature="0" />
    <path
       d="m 291.34652,29.376455 0,10.629921"
       style="fill:none;stroke:#000000"
       id="path102"
       inkscape:connector-curvature="0" />
    <path
       d="m 291.34652,499.09165 0,10.62992"
       style="fill:none;stroke:#000000"
       id="path104"
       inkscape:connector-curvature="0" />
    <path
       d="m 525.91686,103.43382 -9.20578,5.31496"
       style="fill:none;stroke:#000000"
       id="path106"
       inkscape:connector-curvature="0" />
    <path
       d="m 119.13157,338.29142 -9.20578,5.31496"
       style="fill:none;stroke:#000000"
       id="path108"
       inkscape:connector-curvature="0" />
    <path
       d="m 109.92579,195.49164 9.20578,5.31496"
       style="fill:none;stroke:#000000"
       id="path110"
       inkscape:connector-curvature="0" />
    <path
       d="m 516.71108,430.34924 9.20578,5.31496"
       style="fill:none;stroke:#000000"
       id="path112"
       inkscape:connector-curvature="0" />
    <path
       d="m 397.64574,509.72157 0,-10.62992"
       style="fill:none;stroke:#000000"
       id="path114"
       inkscape:connector-curvature="0" />
    <path
       d="m 397.64574,40.006376 0,-10.629921"
       style="fill:none;stroke:#000000"
       id="path116"
       inkscape:connector-curvature="0" />
    <path
       d="m 418.90558,29.376455 0,10.629921"
       style="fill:none;stroke:#000000"
       id="path118"
       inkscape:connector-curvature="0" />
    <path
       d="m 418.90558,499.09165 0,10.62992"
       style="fill:none;stroke:#000000"
       id="path120"
       inkscape:connector-curvature="0" />
    <path
       d="m 163.0754,435.6642 9.20578,-5.31496"
       style="fill:none;stroke:#000000"
       id="path122"
       inkscape:connector-curvature="0" />
    <path
       d="m 569.86069,200.8066 9.20578,-5.31496"
       style="fill:none;stroke:#000000"
       id="path124"
       inkscape:connector-curvature="0" />
    <path
       d="m 589.69639,213.90321 -9.20578,5.31496"
       style="fill:none;stroke:#000000"
       id="path126"
       inkscape:connector-curvature="0" />
    <path
       d="m 182.9111,448.7608 -9.20578,5.31496"
       style="fill:none;stroke:#000000"
       id="path128"
       inkscape:connector-curvature="0" />
    <path
       d="m 579.06647,343.60638 -9.20578,-5.31496"
       style="fill:none;stroke:#000000"
       id="path130"
       inkscape:connector-curvature="0" />
    <path
       d="m 172.28118,108.74878 -9.20578,-5.31496"
       style="fill:none;stroke:#000000"
       id="path132"
       inkscape:connector-curvature="0" />
    <path
       d="m 173.70532,85.02226 9.20578,5.31496"
       style="fill:none;stroke:#000000"
       id="path134"
       inkscape:connector-curvature="0" />
    <path
       d="m 580.49061,319.87986 9.20578,5.31496"
       style="fill:none;stroke:#000000"
       id="path136"
       inkscape:connector-curvature="0" />
    <path
       d="m 506.08116,448.7608 10.62992,-18.41156"
       style="fill:none;stroke:#000000"
       id="path138"
       inkscape:connector-curvature="0" />
    <path
       d="m 569.86069,338.29142 10.62992,-18.41156"
       style="fill:none;stroke:#000000"
       id="path140"
       inkscape:connector-curvature="0" />
    <path
       d="m 589.69639,325.19482 -10.62992,18.41156"
       style="fill:none;stroke:#000000"
       id="path142"
       inkscape:connector-curvature="0" />
    <path
       d="m 525.91686,435.6642 -10.62992,18.41156"
       style="fill:none;stroke:#000000"
       id="path144"
       inkscape:connector-curvature="0" />
    <path
       d="m 418.90558,40.006376 -21.25984,0"
       style="fill:none;stroke:#000000"
       id="path146"
       inkscape:connector-curvature="0" />
    <path
       d="m 291.34652,40.006376 -21.25984,0"
       style="fill:none;stroke:#000000"
       id="path148"
       inkscape:connector-curvature="0" />
    <path
       d="m 270.08668,29.376455 21.25984,0"
       style="fill:none;stroke:#000000"
       id="path150"
       inkscape:connector-curvature="0" />
    <path
       d="m 397.64574,29.376455 21.25984,0"
       style="fill:none;stroke:#000000"
       id="path152"
       inkscape:connector-curvature="0" />
    <path
       d="M 580.49061,219.21817 569.86069,200.8066"
       style="fill:none;stroke:#000000"
       id="path154"
       inkscape:connector-curvature="0" />
    <path
       d="M 516.71108,108.74878 506.08116,90.33722"
       style="fill:none;stroke:#000000"
       id="path156"
       inkscape:connector-curvature="0" />
    <path
       d="m 515.28694,85.02226 10.62992,18.41156"
       style="fill:none;stroke:#000000"
       id="path158"
       inkscape:connector-curvature="0" />
    <path
       d="m 579.06647,195.49164 10.62992,18.41157"
       style="fill:none;stroke:#000000"
       id="path160"
       inkscape:connector-curvature="0" />
    <path
       d="m 289.57487,438.32168 a 42.519685,42.519685 0 1 0 -85.03937,0 42.519685,42.519685 0 0 0 85.03937,0 z"
       style="fill:none;stroke:#000000"
       id="path162"
       inkscape:connector-curvature="0" />
    <path
       d="m 329.61424,375.84822 a 6.377953,6.377953 0 1 0 -12.75591,0 6.377953,6.377953 0 1 0 12.75591,0 z"
       style="fill:none;stroke:#000000"
       id="path164"
       inkscape:connector-curvature="0" />
    <path
       d="m 146.41845,386.97781 a 5.314961,5.314961 0 1 0 -10.62992,0 5.314961,5.314961 0 1 0 10.62992,0 z"
       style="fill:none;stroke:#000000"
       id="path166"
       inkscape:connector-curvature="0" />
    <path
       d="m 312.60637,483.14676 a 3.543307,3.543307 0 1 0 -7.08662,0 3.543307,3.543307 0 1 0 7.08662,0 z"
       style="fill:none;stroke:#000000"
       id="path168"
       inkscape:connector-curvature="0" />
    <path
       d="m 225.79534,293.57983 a 3.543307,3.543307 0 1 0 -7.08661,0 3.543307,3.543307 0 1 0 7.08661,0 z"
       style="fill:none;stroke:#000000"
       id="path170"
       inkscape:connector-curvature="0" />
    <path
       d="m 192.13392,269.54901 a 42.519685,42.519685 0 1 0 -85.03937,0 42.519685,42.519685 0 0 0 85.03937,0 z"
       style="fill:none;stroke:#000000"
       id="path172"
       inkscape:connector-curvature="0" />
    <path
       d="m 289.57487,100.77634 a 42.519685,42.519685 0 1 0 -85.03937,0 42.519685,42.519685 0 0 0 85.03937,0 z"
       style="fill:none;stroke:#000000"
       id="path174"
       inkscape:connector-curvature="0" />
    <path
       d="m 146.41845,152.12021 a 5.314961,5.314961 0 1 0 -10.62992,0 5.314961,5.314961 0 1 0 10.62992,0 z"
       style="fill:none;stroke:#000000"
       id="path176"
       inkscape:connector-curvature="0" />
    <path
       d="m 484.45676,438.32168 a 42.519685,42.519685 0 1 0 -85.03937,0 42.519685,42.519685 0 1 0 85.03937,0 z"
       style="fill:none;stroke:#000000"
       id="path178"
       inkscape:connector-curvature="0" />
    <path
       d="m 372.13392,375.84822 a 6.377953,6.377953 0 1 0 -12.7559,0 6.377953,6.377953 0 1 0 12.7559,0 z"
       style="fill:none;stroke:#000000"
       id="path180"
       inkscape:connector-curvature="0" />
    <path
       d="m 350.87408,375.84822 a 6.377953,6.377953 0 1 0 -12.7559,0 6.377953,6.377953 0 1 0 12.7559,0 z"
       style="fill:none;stroke:#000000"
       id="path182"
       inkscape:connector-curvature="0" />
    <path
       d="m 553.20373,386.97781 a 5.314961,5.314961 0 1 0 -10.62992,0 5.314961,5.314961 0 1 0 10.62992,0 z"
       style="fill:none;stroke:#000000"
       id="path184"
       inkscape:connector-curvature="0" />
    <path
       d="m 349.81109,504.40661 a 5.314961,5.314961 0 1 0 -10.62992,0 5.314961,5.314961 0 1 0 10.62992,0 z"
       style="fill:none;stroke:#000000"
       id="path186"
       inkscape:connector-curvature="0" />
    <path
       d="m 383.47251,483.14676 a 3.543307,3.543307 0 1 0 -7.08662,0 3.543307,3.543307 0 0 0 7.08662,0 z"
       style="fill:none;stroke:#000000"
       id="path188"
       inkscape:connector-curvature="0" />
    <path
       d="m 470.28353,293.57983 a 3.543307,3.543307 0 1 0 -7.08661,0 3.543307,3.543307 0 0 0 7.08661,0 z"
       style="fill:none;stroke:#000000"
       id="path190"
       inkscape:connector-curvature="0" />
    <path
       d="m 581.8977,269.54901 a 42.519685,42.519685 0 1 0 -85.03937,0 42.519685,42.519685 0 1 0 85.03937,0 z"
       style="fill:none;stroke:#000000"
       id="path192"
       inkscape:connector-curvature="0" />
    <path
       d="m 484.45676,100.77634 a 42.519685,42.519685 0 1 0 -85.03937,0 42.519685,42.519685 0 1 0 85.03937,0 z"
       style="fill:none;stroke:#000000"
       id="path194"
       inkscape:connector-curvature="0" />
    <path
       d="m 387.01581,223.48602 a 42.519685,42.519685 0 1 0 -85.03937,0 42.519685,42.519685 0 1 0 85.03937,0 z"
       style="fill:none;stroke:#000000"
       id="path196"
       inkscape:connector-curvature="0" />
    <path
       d="m 553.20373,152.12021 a 5.314961,5.314961 0 1 0 -10.62992,0 5.314961,5.314961 0 1 0 10.62992,0 z"
       style="fill:none;stroke:#000000"
       id="path198"
       inkscape:connector-curvature="0" />
    <path
       d="m 349.81109,34.691416 a 5.314961,5.314961 0 1 0 -10.62992,0 5.314961,5.314961 0 1 0 10.62992,0 z"
       style="fill:none;stroke:#000000"
       id="path200"
       inkscape:connector-curvature="0" />
  </g>
  <g
     inkscape:groupmode="layer"
     inkscape:label="03___PRT_ALL_CURVES"
     id="g202" />
  <g
     inkscape:groupmode="layer"
     inkscape:label="04___PRT_ALL_DTM_PNT"
     id="g204" />
  <g
     inkscape:groupmode="layer"
     inkscape:label="05___PRT_ALL_DTM_CSYS"
     id="g206" />
  <g
     inkscape:groupmode="layer"
     inkscape:label="05___PRT_DEF_DTM_CSYS"
     id="g208" />
  <g
     inkscape:groupmode="layer"
     inkscape:label="06___PRT_ALL_SURFS"
     id="g210" />
  <g
     inkscape:groupmode="layer"
     inkscape:label="3_ALL_SYMBOLS"
     id="g212" />
</svg>
